<?xml version="1.0" encoding="UTF-8"?>
<svg xmlns="http://www.w3.org/2000/svg" xmlns:xlink="http://www.w3.org/1999/xlink" width="50pt" height="50pt" viewBox="0 0 50 50" version="1.1">
<g id="surface1">
<path style=" stroke:none;fill-rule:nonzero;fill:rgb(0%,0%,0%);fill-opacity:1;" d="M 0 36.886719 L 0 12.980469 C 0 5.804688 5.804688 0 12.980469 0 L 36.71875 0 C 43.890625 0 49.695312 5.804688 49.695312 12.980469 L 49.695312 36.71875 C 49.695312 43.890625 43.890625 49.695312 36.71875 49.695312 L 28.6875 49.695312 L 24.421875 48.671875 L 20.835938 49.695312 L 12.808594 49.695312 C 5.804688 49.867188 0 44.0625 0 36.886719 Z M 0 36.886719 "/>
<path style=" stroke:none;fill-rule:nonzero;fill:rgb(100%,100%,100%);fill-opacity:1;" d="M 34.667969 32.960938 L 35.695312 25.789062 L 28.6875 25.789062 L 28.6875 21.175781 C 28.6875 19.125 29.714844 17.25 32.789062 17.25 L 35.863281 17.25 L 35.863281 11.101562 C 35.863281 11.101562 32.960938 10.585938 30.226562 10.585938 C 24.59375 10.585938 20.835938 14.003906 20.835938 20.320312 L 20.835938 25.789062 L 14.6875 25.789062 L 14.6875 32.960938 L 21.007812 32.960938 L 21.007812 49.867188 L 28.859375 49.867188 L 28.859375 32.960938 Z M 34.667969 32.960938 "/>
</g>
</svg>
