<?xml version="1.0" encoding="UTF-8"?>
<svg xmlns="http://www.w3.org/2000/svg" xmlns:xlink="http://www.w3.org/1999/xlink" width="50pt" height="50pt" viewBox="0 0 50 50" version="1.1">
<g id="surface1">
<path style=" stroke:none;fill-rule:nonzero;fill:rgb(0%,0%,0%);fill-opacity:1;" d="M 0 36.886719 L 0 12.980469 C 0 5.804688 5.804688 0 12.980469 0 L 36.71875 0 C 43.890625 0 49.695312 5.804688 49.695312 12.980469 L 49.695312 36.71875 C 49.695312 43.890625 43.890625 49.695312 36.71875 49.695312 L 12.980469 49.695312 C 5.804688 49.867188 0 44.0625 0 36.886719 Z M 0 36.886719 "/>
<path style=" stroke:none;fill-rule:nonzero;fill:rgb(100%,100%,100%);fill-opacity:1;" d="M 34.496094 17.25 C 34.496094 18.191406 33.734375 18.957031 32.789062 18.957031 C 31.847656 18.957031 31.082031 18.191406 31.082031 17.25 C 31.082031 16.304688 31.847656 15.539062 32.789062 15.539062 C 33.734375 15.539062 34.496094 16.304688 34.496094 17.25 Z M 34.496094 17.25 "/>
<path style=" stroke:none;fill-rule:nonzero;fill:rgb(100%,100%,100%);fill-opacity:1;" d="M 25.105469 17.761719 C 21.175781 17.761719 17.929688 21.003906 17.929688 24.933594 C 17.929688 28.863281 21.175781 32.105469 25.105469 32.105469 C 29.03125 32.105469 32.277344 28.863281 32.277344 24.933594 C 32.277344 21.003906 29.03125 17.761719 25.105469 17.761719 Z M 25.105469 29.542969 C 22.542969 29.542969 20.492188 27.496094 20.492188 24.933594 C 20.492188 22.371094 22.542969 20.320312 25.105469 20.320312 C 27.664062 20.320312 29.714844 22.371094 29.714844 24.933594 C 29.714844 27.496094 27.664062 29.542969 25.105469 29.542969 Z M 25.105469 29.542969 "/>
<path style=" stroke:none;fill-rule:nonzero;fill:rgb(100%,100%,100%);fill-opacity:1;" d="M 30.738281 39.621094 L 19.128906 39.621094 C 14.347656 39.621094 10.246094 35.691406 10.246094 30.738281 L 10.246094 19.128906 C 10.246094 14.347656 14.347656 10.246094 19.128906 10.246094 L 30.738281 10.246094 C 35.519531 10.246094 39.449219 14.175781 39.449219 18.957031 L 39.449219 30.738281 C 39.621094 35.691406 35.691406 39.621094 30.738281 39.621094 Z M 19.128906 13.148438 C 15.710938 13.148438 13.148438 15.882812 13.148438 19.128906 L 13.148438 30.738281 C 13.148438 34.15625 15.882812 36.71875 19.128906 36.71875 L 30.738281 36.71875 C 34.15625 36.71875 36.71875 33.984375 36.71875 30.738281 L 36.71875 19.128906 C 36.71875 15.710938 33.984375 13.148438 30.738281 13.148438 Z M 19.128906 13.148438 "/>
</g>
</svg>
