<?xml version="1.0" encoding="UTF-8"?>
<svg xmlns="http://www.w3.org/2000/svg" xmlns:xlink="http://www.w3.org/1999/xlink" width="50pt" height="50pt" viewBox="0 0 50 50" version="1.1">
<g id="surface1">
<path style=" stroke:none;fill-rule:nonzero;fill:rgb(0%,0%,0%);fill-opacity:1;" d="M 0 36.984375 L 0 13.015625 C 0 5.820312 5.820312 0 13.015625 0 L 36.816406 0 C 44.007812 0 49.828125 5.820312 49.828125 13.015625 L 49.828125 36.816406 C 49.828125 44.007812 44.007812 49.828125 36.816406 49.828125 L 13.015625 49.828125 C 5.820312 50 0 44.179688 0 36.984375 Z M 0 36.984375 "/>
<path style=" stroke:none;fill-rule:nonzero;fill:rgb(100%,100%,100%);fill-opacity:1;" d="M 38.871094 16.4375 C 38.015625 16.78125 36.984375 17.125 36.128906 17.292969 C 36.644531 17.292969 37.15625 16.4375 37.5 16.097656 C 37.84375 15.582031 38.183594 15.070312 38.355469 14.382812 C 38.355469 14.382812 38.355469 14.210938 38.355469 14.210938 C 38.355469 14.210938 38.183594 14.210938 38.183594 14.210938 C 37.15625 14.726562 36.128906 15.238281 34.929688 15.410156 C 34.761719 15.410156 34.761719 15.410156 34.761719 15.410156 C 34.589844 15.238281 34.589844 15.238281 34.417969 15.070312 C 33.902344 14.726562 33.390625 14.382812 32.875 14.042969 C 32.019531 13.871094 31.335938 13.699219 30.480469 13.699219 C 29.625 13.699219 28.9375 14.042969 28.253906 14.382812 C 27.570312 14.726562 26.882812 15.238281 26.371094 15.925781 C 25.855469 16.609375 25.515625 17.292969 25.34375 18.152344 C 25.171875 19.007812 25.171875 19.691406 25.34375 20.546875 C 25.34375 20.71875 25.34375 20.71875 25.171875 20.71875 C 20.546875 20.035156 16.78125 18.320312 13.699219 14.898438 C 13.527344 14.726562 13.527344 14.726562 13.355469 14.898438 C 11.984375 16.953125 12.671875 20.035156 14.382812 21.574219 C 14.554688 21.746094 14.898438 21.917969 15.070312 22.261719 C 14.898438 22.261719 13.871094 22.089844 12.84375 21.574219 C 12.671875 21.574219 12.671875 21.574219 12.671875 21.746094 C 12.671875 21.917969 12.671875 22.089844 12.671875 22.429688 C 12.84375 24.484375 14.382812 26.371094 16.265625 27.054688 C 16.4375 27.226562 16.78125 27.226562 16.953125 27.226562 C 16.609375 27.398438 16.097656 27.398438 14.898438 27.398438 C 14.726562 27.398438 14.726562 27.398438 14.726562 27.570312 C 15.582031 30.136719 17.636719 30.820312 19.179688 31.335938 C 19.347656 31.335938 19.519531 31.335938 19.863281 31.335938 C 19.347656 32.019531 17.636719 32.707031 16.78125 32.875 C 15.238281 33.390625 13.699219 33.5625 12.15625 33.390625 C 11.984375 33.390625 11.816406 33.390625 11.816406 33.390625 C 11.816406 33.390625 11.816406 33.5625 11.816406 33.5625 C 12.15625 33.734375 12.5 33.902344 12.84375 34.074219 C 13.871094 34.589844 14.898438 35.101562 15.925781 35.273438 C 21.574219 36.816406 27.738281 35.617188 32.019531 31.507812 C 35.273438 28.253906 36.472656 23.800781 36.472656 19.179688 C 36.472656 19.007812 36.644531 18.835938 36.816406 18.835938 C 37.671875 18.152344 38.355469 17.464844 39.042969 16.609375 C 39.042969 16.78125 39.042969 16.609375 38.871094 16.4375 C 39.042969 16.4375 39.042969 16.4375 38.871094 16.4375 C 39.042969 16.4375 39.042969 16.4375 38.871094 16.4375 Z M 38.871094 16.4375 "/>
</g>
</svg>
