<?xml version="1.0" encoding="UTF-8"?>
<svg xmlns="http://www.w3.org/2000/svg" xmlns:xlink="http://www.w3.org/1999/xlink" width="50pt" height="50pt" viewBox="0 0 50 50" version="1.1">
<g id="surface1">
<path style=" stroke:none;fill-rule:nonzero;fill:rgb(0%,0%,0%);fill-opacity:1;" d="M 0 36.984375 L 0 13.015625 C 0 5.820312 5.820312 0 13.015625 0 L 36.816406 0 C 44.007812 0 49.828125 5.820312 49.828125 13.015625 L 49.828125 36.816406 C 49.828125 44.007812 44.007812 49.828125 36.816406 49.828125 L 13.015625 49.828125 C 5.820312 50 0 44.179688 0 36.984375 Z M 0 36.984375 "/>
<path style=" stroke:none;fill-rule:nonzero;fill:rgb(100%,100%,100%);fill-opacity:1;" d="M 38.355469 21.402344 C 38.355469 18.152344 35.617188 15.410156 32.363281 15.410156 L 16.953125 15.410156 C 13.699219 15.410156 10.957031 18.152344 10.957031 21.402344 L 10.957031 28.597656 C 10.957031 31.847656 13.699219 34.589844 16.953125 34.589844 L 32.363281 34.589844 C 35.617188 34.589844 38.355469 31.847656 38.355469 28.597656 Z M 29.453125 25.515625 L 22.601562 28.9375 C 22.261719 29.109375 21.402344 28.9375 21.402344 28.597656 L 21.402344 21.574219 C 21.402344 21.234375 22.261719 21.0625 22.601562 21.234375 L 29.28125 24.828125 C 29.453125 25 29.625 25.34375 29.453125 25.515625 Z M 29.453125 25.515625 "/>
</g>
</svg>
